<svg width="206" height="206" viewBox="0 0 206 206" fill="none" xmlns="http://www.w3.org/2000/svg">
<rect width="206" height="206" rx="5" fill="#C4C4C4"/>
<path d="M103 103C121.962 103 137.333 87.6284 137.333 68.6666C137.333 49.7048 121.962 34.3333 103 34.3333C84.0383 34.3333 68.6667 49.7048 68.6667 68.6666C68.6667 87.6284 84.0383 103 103 103Z" fill="#464646"/>
<path d="M171.667 163.083V171.667C171.667 173.943 170.762 176.126 169.153 177.736C167.543 179.346 165.36 180.25 163.083 180.25H42.9166C40.6401 180.25 38.4569 179.346 36.8473 177.736C35.2376 176.126 34.3333 173.943 34.3333 171.667V163.083C34.3333 149.425 39.7591 136.325 49.4173 126.667C59.0754 117.009 72.1746 111.583 85.8332 111.583H120.167C133.825 111.583 146.924 117.009 156.583 126.667C166.241 136.325 171.667 149.425 171.667 163.083V163.083Z" fill="#464646"/>
<line x1="81.5" y1="69.5" x2="124.5" y2="69.5" stroke="white" stroke-width="3" stroke-linecap="round"/>
<line x1="102.5" y1="47.5" x2="102.5" y2="90.5" stroke="white" stroke-width="3" stroke-linecap="round"/>
</svg>
