<svg width="206" height="206" viewBox="0 0 206 206" fill="none" xmlns="http://www.w3.org/2000/svg">
<path d="M103 103C121.962 103 137.333 87.6286 137.333 68.6668C137.333 49.7051 121.962 34.3335 103 34.3335C84.0382 34.3335 68.6666 49.7051 68.6666 68.6668C68.6666 87.6286 84.0382 103 103 103Z" fill="#464646"/>
<path d="M171.667 163.083V171.667C171.667 173.943 170.762 176.126 169.153 177.736C167.543 179.346 165.36 180.25 163.083 180.25H42.9167C40.6403 180.25 38.4571 179.346 36.8474 177.736C35.2377 176.126 34.3334 173.943 34.3334 171.667V163.083C34.3334 149.425 39.7593 136.326 49.4174 126.667C59.0755 117.009 72.1747 111.583 85.8334 111.583H120.167C133.825 111.583 146.925 117.009 156.583 126.667C166.241 136.326 171.667 149.425 171.667 163.083Z" fill="#464646"/>
</svg>
